# xmcd
#
# Track frame offsets:
# 150
# 17422
# 32666
# 45806
# 70437
# 90352
# 110771
# 129371
# 145711
# 160862
# 176443
# 190350
# 214469
# 234525
# 249159
# 269636
# 287075
# 305299
#
# Disc length: 4341 seconds
#
#
# Revision: 3
# Processed by: cddbd v1.4PL0 Copyright (c) Steve Scherf et al.
# Submitted via: FreeRIP 2.30 
#
DISCID=f510f312
DTITLE=Various Artist - Best Of Forever Love 18 Vol.3
DYEAR=1900
DGENRE=
TTITLE0=The Color Of The Night
TTITLE1=Big Big World
TTITLE2=You Are The Love Of My Life
TTITLE3=To Love You More
TTITLE4=In Love With You
TTITLE5=Dreams
TTITLE6=I'll Be There For You
TTITLE7=Sukiyaki
TTITLE8=Close To You
TTITLE9=Try To Remember
TTITLE10=Because I Love You
TTITLE11=Dreaming
TTITLE12=When You Believe
TTITLE13=Out Here On My Own
TTITLE14=Just Once
TTITLE15=Paint My Love
TTITLE16=Memory
TTITLE17=Uninvited
EXTD=
EXTT0=
EXTT1=
EXTT2=
EXTT3=
EXTT4=
EXTT5=
EXTT6=
EXTT7=
EXTT8=
EXTT9=
EXTT10=
EXTT11=
EXTT12=
EXTT13=
EXTT14=
EXTT15=
EXTT16=
EXTT17=
PLAYORDER=
